<svg id="Calque_1" xmlns="http://www.w3.org/2000/svg" viewBox="0 0 181.4 34.8"><style>.st0{fill:#e50076}.st1{fill:#10326d}</style><path class="st0" d="M38.7 8.7l-6.2 7.5c-.2.2 0 .5.2.5l9.7.5c3.8.2 6.5-3.7 5-7.2-1.6-3.5-6.3-4.2-8.7-1.3M39.1 25.7l-7.5-6.2c-.2-.2-.5 0-.5.2l-.5 9.7c-.2 3.8 3.7 6.5 7.2 5s4.2-6.2 1.3-8.7M21.7 9.1l7.5 6.2c.2.2.5 0 .5-.2l.5-9.7c.2-3.8-3.7-6.5-7.2-5-3.6 1.6-4.2 6.3-1.3 8.7M28 18L7.4 19.1C2 19.4-1.5 25 .6 30s8.6 6.4 12.6 2.7l15.1-14.1c.2-.2 0-.6-.3-.6"/><g><path class="st1" d="M71.1 15l-11.5 4.8c.4.7 1 1.2 1.7 1.7.7.4 1.5.6 2.3.6.6 0 1.2-.1 1.8-.3.5-.2 1-.5 1.5-.9.4-.4.8-.9 1-1.4l2.9 1.2c-.4.9-1 1.7-1.7 2.4s-1.5 1.2-2.4 1.6-1.9.6-3 .6c-1.6 0-3-.4-4.4-1.3-1.3-.9-2.3-2.1-2.9-3.6-.4-.9-.6-1.9-.6-3 0-1.6.4-3 1.3-4.4.9-1.3 2.1-2.3 3.6-2.9.9-.4 1.9-.6 3-.6 1.6 0 3 .4 4.4 1.3 1.3.9 2.3 2.1 2.9 3.6-.1.2 0 .5.1.6zm-4.4-1.2c-.4-.4-.9-.7-1.5-.9-.5-.2-1.1-.3-1.7-.3-.7 0-1.3.1-1.8.3-.9.4-1.6.9-2.1 1.7-.5.7-.8 1.6-.8 2.5l7.9-3.3zM85.1 10.5c1.2.7 2.2 1.7 2.9 2.9.7 1.2 1.1 2.5 1.1 4v7.9H86v-7.9c0-.9-.2-1.7-.6-2.4s-1-1.3-1.8-1.8c-.7-.4-1.6-.6-2.4-.6-.9 0-1.7.2-2.4.6-.7.4-1.3 1-1.7 1.8-.4.7-.6 1.5-.6 2.4s.2 1.7.6 2.4c.4.7 1 1.3 1.7 1.8.7.4 1.5.6 2.4.6h2.7v3.1h-2.7c-1.4 0-2.8-.4-4-1.1s-2.2-1.7-2.9-2.9c-.7-1.2-1.1-2.5-1.1-4 0-1.4.4-2.8 1.1-4s1.7-2.2 2.9-2.9c1.2-.7 2.5-1.1 4-1.1 1.3.1 2.6.5 3.9 1.2zM100.5 16.5c.7.4 1.3 1 1.7 1.7.4.7.6 1.5.6 2.4 0 .8-.2 1.6-.6 2.3-.4.7-1 1.3-1.7 1.7-.7.4-1.5.6-2.3.6h-7v-3.1h7c.4 0 .8-.2 1.1-.5.3-.3.5-.7.5-1.2s-.2-.9-.5-1.2c-.3-.3-.7-.5-1.1-.5h-2.3c-.8 0-1.6-.2-2.3-.6-.7-.4-1.3-1-1.7-1.7-.4-.7-.6-1.5-.6-2.3s.2-1.6.6-2.3 1-1.3 1.7-1.7 1.5-.6 2.3-.6h5.3v3.1h-5.3c-.4 0-.8.2-1.2.5-.3.3-.5.7-.5 1.2 0 .4.2.8.5 1.1s.7.5 1.2.5h2.3c.8-.1 1.6.2 2.3.6zM117.9 9.6V27c0 1.4-.4 2.7-1.1 3.9s-1.7 2.1-2.9 2.9c-1.2.7-2.5 1.1-3.9 1.1v-3c.9 0 1.7-.2 2.4-.6.7-.4 1.3-1 1.8-1.8.4-.7.6-1.5.6-2.4v-2.8c-1.1.7-2.2 1-3.4 1-1.2 0-2.3-.3-3.3-.9s-1.8-1.4-2.4-2.4-.9-2.1-.9-3.3V9.6h3v9.1c0 1 .3 1.8 1 2.5s1.5 1 2.5 1c.9 0 1.7-.3 2.3-.9.7-.6 1-1.3 1.1-2.2V9.6h3.2zM123.1 9.6h4.8v3h-4.8v12.6h-3V7.8c0-1.4.4-2.7 1.1-3.9s1.7-2.1 2.9-2.9c1.2-.7 2.5-1.1 3.9-1.1v3c-.9 0-1.7.2-2.4.6-.7.4-1.3 1-1.7 1.7-.4.7-.6 1.5-.6 2.4v2h-.2zM133 17.4c0 .9.2 1.7.6 2.4.4.7 1 1.3 1.7 1.7.7.4 1.5.6 2.4.6v3c-1.4 0-2.7-.4-3.9-1.1s-2.1-1.7-2.9-2.9c-.7-1.2-1.1-2.5-1.1-3.9V0h3v17.4h.2zM152.9 9.6V27c0 1.4-.4 2.7-1.1 3.9-.7 1.2-1.7 2.1-2.9 2.9-1.2.7-2.5 1.1-3.9 1.1v-3c.9 0 1.7-.2 2.4-.6s1.3-1 1.8-1.8c.4-.7.6-1.5.6-2.4v-2.8c-1.1.7-2.2 1-3.4 1s-2.3-.3-3.3-.9-1.8-1.4-2.4-2.4c-.6-1-.9-2.1-.9-3.3V9.6h3v9.1c0 1 .3 1.8 1 2.5s1.5 1 2.5 1c.9 0 1.7-.3 2.3-.9.7-.6 1-1.3 1.1-2.2V9.6h3.2zM170.4 15l-11.5 4.8c.4.7 1 1.2 1.7 1.7.7.4 1.5.6 2.3.6.6 0 1.2-.1 1.8-.3.5-.2 1-.5 1.5-.9.4-.4.8-.9 1-1.4l2.9 1.2c-.4.9-1 1.7-1.7 2.4s-1.5 1.2-2.4 1.6-1.9.6-3 .6c-1.6 0-3-.4-4.4-1.3-1.3-.9-2.3-2.1-2.9-3.6-.4-.9-.6-1.9-.6-3 0-1.6.4-3 1.3-4.4.9-1.3 2.1-2.3 3.6-2.9.9-.4 1.9-.6 3-.6 1.6 0 3 .4 4.4 1.3 1.3.9 2.3 2.1 2.9 3.6 0 .2.1.5.1.6zm-4.3-1.2c-.4-.4-.9-.7-1.5-.9-.5-.2-1.1-.3-1.7-.3-.7 0-1.3.1-1.8.3-.9.4-1.6.9-2.1 1.7-.5.7-.8 1.6-.8 2.5l7.9-3.3zM181.4 9.4v3.1h-1c-.9 0-1.7.2-2.4.6-.7.4-1.3 1-1.7 1.8-.4.7-.6 1.6-.6 2.4v7.9h-3.1v-7.9c0-1.4.4-2.7 1.1-4 .7-1.2 1.7-2.2 2.9-2.9s2.5-1.1 4-1.1l.8.1z"/></g></svg>
