<?xml version="1.0" encoding="UTF-8"?>
<!-- Generator: Adobe Illustrator 26.1.0, SVG Export Plug-In . SVG Version: 6.00 Build 0)  -->
<svg xmlns="http://www.w3.org/2000/svg" xmlns:xlink="http://www.w3.org/1999/xlink" version="1.1" id="Calque_1" x="0px" y="0px" viewBox="0 0 395.2 125.85" style="enable-background:new 0 0 395.2 125.85;" xml:space="preserve">
<style type="text/css">
	.st0{fill:#5D5C5D;}
	.st1{fill-rule:evenodd;clip-rule:evenodd;fill:#2187C3;}
	.st2{fill-rule:evenodd;clip-rule:evenodd;fill:#BEC4DC;}
	.st3{fill-rule:evenodd;clip-rule:evenodd;fill:none;}
	.st4{fill-rule:evenodd;clip-rule:evenodd;fill:#419835;}
</style>
<g>
	<g>
		<path class="st0" d="M19.62,106.1c0.67-2.4,1.49-4.97,2.47-7.71l5.24-14.56h7.8v30.44h-5.56V98.85c0-2.26,0.09-4.88,0.27-7.87    h-0.2c-0.26,0.86-0.56,1.84-0.91,2.91c-0.35,1.08-0.71,2.14-1.09,3.19l-6.28,17.2h-3.58l-6.28-17.2    c-0.38-1.05-0.74-2.11-1.09-3.19c-0.35-1.08-0.65-2.05-0.91-2.91H9.3c0.18,2.81,0.27,5.42,0.27,7.85v15.45H4.01V83.83h7.76    l5.24,14.49c0.88,2.41,1.7,5,2.47,7.78H19.62z"></path>
		<path class="st0" d="M42.4,114.27V83.83h5.56v13.85h0.09l11.46-13.85h6.9L53.74,98.91l13.7,15.36h-7.12l-12.27-13.74h-0.09v13.74    H42.4z"></path>
		<path class="st0" d="M89.13,106.51H77.7l-2.97,7.76h-5.92l12.05-30.44h5.08l12.05,30.44h-5.88L89.13,106.51z M83.37,91.16    c-1.06,3.18-2.01,5.85-2.84,7.98l-1.04,2.71h7.85l-1.04-2.71c-0.82-2.16-1.77-4.82-2.84-7.98H83.37z"></path>
		<path class="st0" d="M116.61,87.97c-1.51,0-2.91,0.25-4.19,0.75c-1.28,0.5-2.37,1.23-3.29,2.18c-0.92,0.96-1.63,2.13-2.14,3.54    c-0.51,1.4-0.77,3.01-0.77,4.81c0,1.79,0.23,3.36,0.7,4.72c0.47,1.36,1.14,2.49,2.02,3.4c0.88,0.91,1.95,1.6,3.21,2.06    c1.26,0.46,2.7,0.69,4.3,0.69c1.15,0,2.32-0.09,3.52-0.27c1.19-0.18,2.31-0.45,3.36-0.8v4.8c-1.06,0.3-2.2,0.54-3.43,0.72    c-1.23,0.17-2.5,0.26-3.81,0.26c-2.57,0-4.83-0.37-6.78-1.1c-1.95-0.74-3.58-1.77-4.89-3.12c-1.31-1.34-2.29-2.95-2.95-4.82    c-0.66-1.87-0.99-3.94-0.99-6.2c0-2.32,0.35-4.47,1.06-6.46c0.7-1.99,1.72-3.71,3.04-5.16c1.32-1.46,2.98-2.6,4.97-3.44    c1.99-0.83,4.24-1.26,6.75-1.27c1.29,0,2.5,0.09,3.65,0.26c1.15,0.17,2.19,0.42,3.11,0.74V89c-1.21-0.38-2.34-0.64-3.38-0.8    C118.63,88.05,117.61,87.97,116.61,87.97z"></path>
	</g>
	<path class="st1" d="M97.55,42.4c-0.21,0.33-0.46,0.55-0.87,0.34c-2.61-1.31-5.31-2.39-8.09-3.29c-1.81-0.59-3.65-1.06-5.51-1.43   c-2.51-0.5-5.04-0.79-7.6-0.92c-2.09-0.1-4.16-0.07-6.24,0.08c-2.19,0.16-4.37,0.5-6.53,0.95c-4.49,0.93-8.79,2.41-12.94,4.31   c-2.61,1.2-5.13,2.58-7.59,4.07c-2.19,1.33-4.29,2.78-6.36,4.27c-1.49,1.08-2.92,2.24-4.34,3.42c-1.31,1.09-2.58,2.22-3.84,3.37   c-1.45,1.32-2.84,2.71-4.23,4.11c-1.36,1.36-2.65,2.78-3.92,4.23c-1.26,1.45-2.51,2.91-3.72,4.41c-1.32,1.62-2.55,3.29-3.74,5   c-0.77,1.12-1.44,2.3-2.23,3.4c-0.14,0.2-0.24,0.53-0.57,0.35c-0.27-0.15-0.13-0.41-0.05-0.63c0.5-1.12,1-2.25,1.49-3.37   c0.87-2.02,1.79-4.01,2.72-6.01c0.82-1.77,1.8-3.44,2.64-5.2c0.71-1.48,1.63-2.86,2.49-4.27c1.34-2.21,2.6-4.46,4.1-6.56   c1.58-2.21,3.09-4.49,4.77-6.62c1.96-2.49,3.97-4.95,6.1-7.31c1.98-2.17,3.99-4.31,6.09-6.36c1.56-1.52,3.19-2.97,4.82-4.41   c1.61-1.42,3.27-2.76,4.95-4.08c1.51-1.19,3.07-2.31,4.64-3.42c2.37-1.68,4.82-3.26,7.32-4.74c2.15-1.27,4.35-2.44,6.59-3.56   c4.71-2.35,9.57-4.34,14.59-5.91c4.22-1.31,8.5-2.41,12.89-3.03c0.67-0.09,1.33-0.23,1.99-0.35c2.17-0.35,4.35-0.51,6.54-0.67   c2.36-0.17,4.72-0.21,7.08-0.16c2.43,0.05,4.87,0.18,7.29,0.5c1.23,0.16,2.46,0.27,3.68,0.5c0.65,0.12,0.77,0.4,0.39,0.99   c-0.67,1.06-1.36,2.1-2.05,3.15c-3.12,4.73-6.2,9.48-9.3,14.22c-3.12,4.75-6.21,9.52-9.32,14.28"></path>
	<path class="st2" d="M12.04,75.32c-0.17,0.6-0.6,1.06-0.9,1.58c-0.5,0.87-1.1,1.69-1.66,2.53"></path>
	<g>
		<g>
			<path class="st3" d="M67.55,18.52H21.48c0.25,0.44,0.34,0.93,0.52,1.39c0.07,0.19,0.16,0.36-0.01,0.54     c0.37,0.97,0.71,1.96,1.11,2.91c0.34,0.82,0.69,1.63,1.06,2.44c0.42,0.92,0.82,1.84,1.28,2.73c0.83,1.63,1.63,3.29,2.56,4.87     c0.15,0.25,0.3,0.5,0.46,0.75c0.03-0.05,0.05-0.1,0.09-0.15c0.33-0.47,0.39-0.46,0.69,0.01c0.57,0.87,1.09,1.78,1.65,2.66     c0.68,1.08,1.43,2.12,2.15,3.17c0.08,0.12,0.15,0.22,0.28,0.29c0.2,0.1,0.31,0.26,0.36,0.51c0.08,0.44,0.44,0.75,0.7,1.07     c1.1,1.32,2.15,2.67,3.3,3.95c0.81,0.9,1.68,1.73,2.53,2.59c0.39,0.39,0.83,0.73,1.2,1.13c0.85,0.89,1.83,1.62,2.77,2.4     c0.59,0.49,1.16,1.01,1.8,1.42c0.57,0.36,1.08,0.84,1.71,1.1c0.17,0.07,0.29,0.21,0.41,0.33c0.14,0.14,0.28,0.32,0.48,0.34     c0.47,0.05,0.76,0.38,1.1,0.64c0.47,0.36,1.05,0.52,1.56,0.81c0.59,0.33,1.21,0.63,1.82,0.92c0.54,0.25,1.05,0.55,1.63,0.74     c0.42,0.14,0.86,0.35,1.29,0.51c0.46,0.18,0.94,0.37,1.4,0.55c0.62,0.23,1.3,0.25,1.87,0.62c0.19,0.12,0.45,0.12,0.68,0.17     c0.08,0.02,0.2-0.02,0.23,0.02c0.37,0.44,0.9,0.23,1.34,0.34c0.1,0.02,0.23,0,0.28,0.06c0.35,0.35,0.8,0.3,1.23,0.3     c0.08,0,0.17,0,0.25,0c-0.04-0.72,0.4-1.47,1.33-1.47c0.11,0,0.2,0.01,0.3,0.03c0.04,0,0.09-0.01,0.14-0.01     c0.27,0,0.5,0.07,0.69,0.18c0.04,0.02,0.08,0.03,0.11,0.05c0.44,0.04,0.76,0.25,0.96,0.54c0.44,0.13,0.72,0.46,0.84,0.85     c0.19,0.16,0.32,0.38,0.39,0.61V19C68.03,18.52,68.03,18.52,67.55,18.52z"></path>
			<path class="st3" d="M63.28,60.65c-0.08,0-0.17,0-0.25,0c-0.43,0-0.88,0.05-1.23-0.3c-0.06-0.06-0.19-0.04-0.28-0.06     c-0.45-0.1-0.98,0.11-1.34-0.34c-0.04-0.04-0.15-0.01-0.23-0.02c-0.23-0.05-0.49-0.05-0.68-0.17c-0.57-0.37-1.26-0.39-1.87-0.62     c-0.47-0.17-0.94-0.37-1.4-0.55c-0.43-0.17-0.86-0.37-1.29-0.51c-0.58-0.19-1.09-0.49-1.63-0.74c-0.62-0.28-1.23-0.58-1.82-0.92     c-0.51-0.29-1.08-0.44-1.56-0.81c-0.34-0.26-0.63-0.59-1.1-0.64c-0.2-0.02-0.34-0.2-0.48-0.34c-0.12-0.13-0.24-0.26-0.41-0.33     c-0.64-0.26-1.14-0.74-1.71-1.1c-0.64-0.41-1.22-0.93-1.8-1.42c-0.94-0.78-1.93-1.51-2.77-2.4c-0.38-0.4-0.81-0.73-1.2-1.13     c-0.85-0.86-1.72-1.69-2.53-2.59c-1.15-1.28-2.21-2.63-3.3-3.95c-0.27-0.32-0.63-0.63-0.7-1.07c-0.04-0.25-0.15-0.4-0.36-0.51     c-0.13-0.07-0.2-0.18-0.28-0.29c-0.73-1.05-1.47-2.09-2.15-3.17c-0.56-0.88-1.08-1.78-1.65-2.66c-0.3-0.46-0.36-0.47-0.69-0.01     c-0.03,0.05-0.06,0.1-0.09,0.15c0.28,0.78,0.82,1.41,1.22,2.12c0.78,1.37,1.77,2.61,2.63,3.93c0.61,0.93,1.34,1.78,2.03,2.66     c0.94,1.19,1.93,2.33,2.94,3.46c1.19,1.33,2.46,2.58,3.76,3.81c0.83,0.79,1.74,1.5,2.62,2.23c0.98,0.81,2.01,1.56,3.05,2.29     c1.14,0.79,2.31,1.53,3.53,2.19c0.49,0.27,0.99,0.53,1.48,0.79c1.01,0.54,2.06,0.98,3.1,1.45c0.49,0.22,0.98,0.45,1.49,0.62     c0.84,0.29,1.69,0.56,2.54,0.81c0.82,0.24,1.63,0.48,2.46,0.68c0.68,0.16,1.37,0.27,2.06,0.4c0.11-0.01,0.22-0.01,0.33-0.01     C63.43,61.35,63.3,61,63.28,60.65z"></path>
			<path class="st3" d="M66.76,63.27c-0.54,0-0.92-0.26-1.13-0.61c-0.11,0.02-0.22,0.03-0.33,0.03c-2.76,0-5.52,0-8.27,0     c-0.28,0-0.55-0.08-0.82-0.13c-0.86-0.16-1.73-0.21-2.6-0.24c-0.56-0.01-1.09-0.14-1.6-0.35c-0.15,0-0.3,0.01-0.45,0.01     c-0.48,0.15-0.97,0.17-1.43-0.03c-0.53-0.22-1.07-0.33-1.64-0.36c-0.31-0.01-0.54-0.27-0.88-0.27c-0.72,0-1.41-0.3-2.08-0.5     c-0.58-0.18-1.24-0.21-1.77-0.56c-0.14-0.09-0.3-0.11-0.46-0.1c-0.15,0-0.2-0.09-0.23-0.22c-0.21-0.14-0.45-0.2-0.7-0.27     c-0.55-0.15-1.09-0.36-1.63-0.58c-1.06-0.43-2.13-0.81-3.15-1.32c-0.89-0.45-1.8-0.88-2.69-1.35c-0.78-0.42-1.57-0.83-2.32-1.28     c-0.89-0.54-1.8-1.05-2.65-1.68c-0.72-0.53-1.42-1.09-2.17-1.56c-0.6-0.37-1.11-0.86-1.67-1.28c-1.11-0.84-2.16-1.75-3.19-2.69     c-0.93-0.85-1.78-1.79-2.69-2.67c-1.21-1.18-2.29-2.5-3.39-3.78c-0.52-0.6-0.97-1.28-1.47-1.9c-0.85-1.06-1.6-2.19-2.41-3.28     c-0.51-0.69-0.94-1.43-1.41-2.14c-0.81-1.24-1.5-2.55-2.26-3.81C8.6,29.22,8.06,28,7.42,26.82c-0.21-0.38-0.49-0.75-0.55-1.21     c-0.01-0.06-0.11-0.1-0.17-0.15c-0.05,0.06-0.1,0.06-0.13,0c-0.38-0.84-0.78-1.67-1.13-2.52C5,21.88,4.6,20.8,4.2,19.73     c-0.05-0.14-0.08-0.26-0.26-0.25v43.38c0,0.54,0,0.54,0.54,0.54h63.02c0.12,0,0.24-0.01,0.36,0c0.16,0.02,0.19-0.03,0.18-0.18     c-0.01-0.29-0.01-0.57-0.01-0.86C67.87,62.86,67.45,63.27,66.76,63.27z"></path>
			<path class="st4" d="M65.07,61.97c-0.21-0.03-0.42-0.09-0.63-0.16c-0.18-0.02-0.34-0.07-0.48-0.14c-0.17-0.05-0.32-0.17-0.5-0.18     c-0.03,0-0.08,0.03-0.1,0c-0.69-0.13-1.38-0.24-2.06-0.4c-0.83-0.2-1.65-0.44-2.46-0.68c-0.85-0.26-1.7-0.52-2.54-0.81     c-0.51-0.18-1-0.4-1.49-0.62c-1.04-0.47-2.09-0.91-3.1-1.45c-0.49-0.26-0.99-0.53-1.48-0.79c-1.22-0.66-2.39-1.4-3.53-2.19     c-1.04-0.73-2.06-1.47-3.05-2.29c-0.88-0.73-1.79-1.44-2.62-2.23c-1.29-1.23-2.56-2.48-3.76-3.81c-1.01-1.13-2-2.27-2.94-3.46     c-0.69-0.87-1.42-1.72-2.03-2.66c-0.86-1.32-1.85-2.56-2.63-3.93c-0.4-0.71-0.94-1.34-1.22-2.12c-0.15-0.25-0.31-0.5-0.46-0.75     c-0.93-1.58-1.73-3.24-2.56-4.87c-0.46-0.9-0.86-1.82-1.28-2.73c-0.37-0.81-0.71-1.62-1.06-2.44c-0.4-0.96-0.74-1.94-1.11-2.91     l-0.27-0.45c-0.07-0.05-0.11-0.11-0.12-0.19c-0.11-0.69-0.11-0.69-0.76-0.8c-0.16-0.03-0.32-0.01-0.48-0.01     c-4.77,0-9.54,0-14.31-0.01c-0.57,0-1.12,0.1-1.7,0.11c-0.05,0.09-0.18,0.13-0.08,0.29c0.39,0.61,0.53,1.33,0.77,2.01     c0.19,0.53,0.47,1,0.65,1.53c0.3,0.85,0.77,1.64,1,2.53c0.06,0.05,0.16,0.09,0.17,0.15c0.06,0.46,0.34,0.83,0.55,1.21     c0.64,1.17,1.17,2.39,1.86,3.54c0.76,1.26,1.45,2.57,2.26,3.81c0.47,0.72,0.9,1.46,1.41,2.14c0.81,1.09,1.55,2.22,2.41,3.28     c0.5,0.62,0.95,1.29,1.47,1.9c1.1,1.28,2.17,2.6,3.39,3.78c0.9,0.88,1.76,1.82,2.69,2.67c1.03,0.94,2.08,1.86,3.19,2.69     c0.56,0.42,1.07,0.9,1.67,1.28c0.76,0.47,1.46,1.03,2.17,1.56c0.84,0.63,1.76,1.14,2.65,1.68c0.75,0.45,1.54,0.87,2.32,1.28     c0.89,0.47,1.79,0.9,2.69,1.35c1.01,0.51,2.09,0.9,3.15,1.32c0.53,0.22,1.07,0.43,1.63,0.58c0.25,0.07,0.48,0.13,0.7,0.27     c0.42-0.03,0.79,0.15,1.17,0.28c0.24,0.08,0.48,0.14,0.72,0.23c0.89,0.31,1.82,0.45,2.73,0.72c0.8,0.24,1.68,0.35,2.53,0.43     c0.46,0.04,0.94,0.13,1.38,0.3c0.16,0.02,0.26,0.06,0.43,0.07c0.35-0.04,0.69,0.01,1.05,0.07c0.93,0.16,1.86,0.31,2.81,0.25     c0.4-0.02,0.77,0.12,1.16,0.16c0.35,0.04,0.7,0.07,1.06,0.08c2.12,0.01,4.24,0.01,6.37,0c0.24,0,0.52-0.04,0.66-0.05     c0.29-0.02,0.86-0.16,0.86-0.25c0-0.04-0.64-0.06-0.68-0.09C65.22,62.04,65.14,62.01,65.07,61.97z"></path>
		</g>
	</g>
	<g>
		<path class="st0" d="M168.57,51.61c0,1.05-0.23,2-0.7,2.88c-0.47,0.87-1.25,1.6-2.33,2.17v0.07c0.6,0.2,1.15,0.47,1.65,0.78    c0.5,0.32,0.93,0.7,1.28,1.14c0.35,0.44,0.63,0.93,0.83,1.49c0.2,0.55,0.3,1.17,0.3,1.86c0,0.59-0.09,1.22-0.28,1.89    c-0.19,0.67-0.51,1.33-0.98,1.96c-0.47,0.63-1.09,1.21-1.88,1.74c-0.78,0.53-1.77,0.95-2.96,1.26c-0.3,0.07-0.63,0.14-0.98,0.2    c-0.36,0.06-0.75,0.11-1.18,0.15c-0.43,0.04-0.91,0.07-1.44,0.09c-0.53,0.02-1.12,0.03-1.79,0.03h-7.02V45.19h8.39    c1.79,0,3.24,0.18,4.33,0.54c0.82,0.26,1.53,0.61,2.13,1.04c0.6,0.43,1.1,0.9,1.49,1.42c0.39,0.52,0.68,1.08,0.87,1.66    C168.48,50.44,168.57,51.02,168.57,51.61z M159.49,55.13c1.2,0,2.1-0.12,2.69-0.36c0.66-0.28,1.13-0.66,1.42-1.14    c0.28-0.49,0.42-1.04,0.42-1.65c0-0.64-0.16-1.21-0.49-1.7c-0.32-0.5-0.88-0.87-1.66-1.11c-0.32-0.1-0.7-0.17-1.14-0.21    c-0.43-0.04-0.97-0.06-1.61-0.06h-3.63v6.24H159.49z M155.51,58.82v6.8h2.89c0.77,0,1.43-0.02,1.99-0.06    c0.55-0.04,1.03-0.11,1.43-0.21c0.61-0.13,1.12-0.31,1.53-0.53c0.41-0.22,0.74-0.47,0.99-0.76c0.25-0.28,0.43-0.6,0.54-0.94    c0.11-0.34,0.16-0.71,0.16-1.09c0-0.67-0.19-1.26-0.56-1.77c-0.37-0.5-0.96-0.88-1.75-1.14c-0.35-0.11-0.76-0.19-1.23-0.23    c-0.47-0.05-1.07-0.07-1.8-0.07H155.51z"></path>
		<path class="st0" d="M181.29,69.77c-1.76,0-3.21-0.3-4.37-0.89c-1.15-0.6-2.03-1.4-2.62-2.41c-0.31-0.54-0.54-1.14-0.69-1.79    c-0.15-0.65-0.23-1.37-0.23-2.16V51.85h4.28v10.22c0,0.59,0.04,1.1,0.13,1.52c0.08,0.43,0.21,0.8,0.38,1.11    c0.29,0.53,0.7,0.92,1.23,1.18c0.53,0.26,1.16,0.39,1.89,0.39c0.77,0,1.43-0.14,1.98-0.43c0.55-0.29,0.96-0.73,1.24-1.32    c0.28-0.56,0.41-1.35,0.41-2.36V51.85h4.28v10.67c0,1.42-0.25,2.61-0.74,3.59c-0.28,0.55-0.63,1.06-1.07,1.51    c-0.44,0.45-0.96,0.84-1.55,1.15c-0.6,0.32-1.27,0.56-2.02,0.74C183.06,69.68,182.22,69.77,181.29,69.77z"></path>
		<path class="st0" d="M193.71,43.21h4.49v4.63h-4.49V43.21z M193.82,51.85h4.28v17.47h-4.28V51.85z"></path>
		<path class="st0" d="M203.07,69.32V43.21h4.28v26.11H203.07z"></path>
		<path class="st0" d="M211.32,60.93c0-1.53,0.21-2.89,0.63-4.08c0.42-1.2,1-2.2,1.72-3.01c0.73-0.81,1.56-1.42,2.5-1.82    c0.94-0.4,1.91-0.6,2.92-0.6c0.47,0,0.91,0.04,1.34,0.13c0.42,0.08,0.82,0.2,1.19,0.34c0.37,0.14,0.72,0.31,1.05,0.49    c0.32,0.18,0.63,0.37,0.9,0.56h0.04c-0.01-0.24-0.02-0.58-0.03-1.02c-0.01-0.44-0.01-0.92-0.01-1.43v-7.27h4.28v20.92    c0,1.15,0.01,2.15,0.04,2.98c0.02,0.83,0.05,1.57,0.07,2.22h-3.86l-0.18-1.86h-0.07c-0.25,0.3-0.56,0.6-0.91,0.88    c-0.36,0.29-0.75,0.54-1.17,0.75c-0.43,0.21-0.9,0.38-1.41,0.5c-0.51,0.12-1.07,0.18-1.67,0.18c-0.95,0-1.86-0.17-2.73-0.5    c-0.87-0.34-1.65-0.86-2.35-1.56c-0.69-0.7-1.25-1.62-1.66-2.76C211.53,63.81,211.32,62.47,211.32,60.93z M219.75,66.36    c0.42,0,0.82-0.05,1.2-0.16c0.38-0.11,0.74-0.25,1.07-0.43c0.34-0.18,0.63-0.38,0.89-0.6c0.26-0.22,0.48-0.43,0.66-0.63v-8.29    c-0.51-0.41-1.07-0.75-1.7-1.02c-0.63-0.27-1.29-0.41-1.99-0.41c-0.45,0-0.91,0.09-1.4,0.27c-0.49,0.18-0.93,0.49-1.34,0.92    c-0.4,0.43-0.74,1.03-1.01,1.8c-0.27,0.77-0.41,1.75-0.41,2.94c0,1.76,0.34,3.13,1.02,4.11    C217.44,65.85,218.44,66.35,219.75,66.36z"></path>
		<path class="st0" d="M232.83,43.21h4.49v4.63h-4.49V43.21z M232.94,51.85h4.28v17.47h-4.28V51.85z"></path>
		<path class="st0" d="M245.95,54.28h0.07c0.25-0.36,0.57-0.72,0.96-1.06c0.38-0.35,0.82-0.66,1.32-0.92    c0.49-0.26,1.04-0.48,1.63-0.64c0.6-0.16,1.23-0.24,1.9-0.24c0.64,0,1.25,0.07,1.85,0.22c0.6,0.14,1.14,0.37,1.63,0.68    c0.49,0.31,0.93,0.7,1.31,1.19c0.38,0.49,0.68,1.07,0.89,1.74c0.12,0.37,0.2,0.78,0.24,1.22c0.04,0.44,0.06,0.95,0.06,1.52v11.34    h-4.28V58.64c0-0.47-0.02-0.87-0.05-1.21c-0.04-0.34-0.1-0.63-0.2-0.88c-0.22-0.55-0.54-0.95-0.98-1.19    c-0.44-0.24-0.97-0.36-1.6-0.36c-0.83,0-1.63,0.2-2.39,0.59c-0.76,0.39-1.44,0.96-2.03,1.7v12.03h-4.28V51.85h3.54L245.95,54.28z"></path>
		<path class="st0" d="M273.86,69.77c0-0.24,0-0.54,0.01-0.89c0.01-0.35,0.02-0.65,0.04-0.89h-0.04c-0.26,0.22-0.57,0.43-0.91,0.64    c-0.34,0.21-0.72,0.4-1.13,0.58c-0.41,0.17-0.86,0.31-1.35,0.41c-0.49,0.1-1,0.15-1.52,0.15c-0.93,0-1.83-0.17-2.72-0.5    c-0.88-0.33-1.67-0.85-2.35-1.57c-0.69-0.72-1.24-1.63-1.66-2.75c-0.42-1.12-0.63-2.46-0.63-4.04c0-1.57,0.21-2.95,0.64-4.14    c0.43-1.18,1-2.17,1.71-2.97c0.71-0.79,1.52-1.39,2.45-1.79c0.92-0.4,1.87-0.6,2.84-0.6c1.07,0,2.02,0.23,2.85,0.68    c0.83,0.45,1.51,1.02,2.04,1.72h0.07l0.18-1.97h3.75v17.8c0,1.02-0.08,1.9-0.25,2.63c-0.17,0.73-0.41,1.38-0.74,1.95    c-0.39,0.66-0.88,1.24-1.47,1.73c-0.6,0.49-1.28,0.9-2.04,1.23c-0.76,0.32-1.6,0.57-2.52,0.73c-0.91,0.16-1.88,0.24-2.91,0.24    c-0.58,0-1.14-0.02-1.7-0.06c-0.55-0.04-1.07-0.1-1.56-0.18c-0.49-0.08-0.93-0.17-1.34-0.27c-0.4-0.1-0.74-0.21-1.02-0.32v-3.48    c0.79,0.26,1.63,0.47,2.5,0.6c0.87,0.14,1.79,0.21,2.75,0.21c1.91,0,3.39-0.37,4.44-1.11c1.05-0.74,1.57-1.86,1.57-3.36V69.77z     M270.04,66.36c0.43,0,0.84-0.05,1.23-0.16c0.38-0.11,0.74-0.25,1.06-0.41c0.32-0.17,0.62-0.35,0.87-0.56    c0.26-0.2,0.48-0.41,0.66-0.61V56.8c-0.46-0.54-1.02-0.99-1.7-1.35c-0.67-0.36-1.39-0.55-2.15-0.56c-0.26,0-0.54,0.03-0.84,0.1    c-0.29,0.07-0.59,0.18-0.89,0.35c-0.3,0.17-0.59,0.39-0.86,0.68c-0.27,0.28-0.51,0.64-0.71,1.07c-0.2,0.43-0.37,0.95-0.5,1.55    c-0.13,0.6-0.19,1.3-0.19,2.09c0,0.88,0.08,1.66,0.25,2.35c0.17,0.69,0.42,1.28,0.76,1.77c0.34,0.49,0.75,0.86,1.25,1.12    C268.8,66.23,269.38,66.36,270.04,66.36z"></path>
		<path class="st0" d="M295.41,69.32h-4.42V45.19h15.37v3.7h-10.95v6.24h9.37v3.7h-9.37V69.32z"></path>
		<path class="st0" d="M317.43,69.77c-1.76,0-3.21-0.3-4.37-0.89c-1.16-0.6-2.03-1.4-2.62-2.41c-0.31-0.54-0.54-1.14-0.69-1.79    c-0.15-0.65-0.23-1.37-0.23-2.16V51.85h4.28v10.22c0,0.59,0.04,1.1,0.13,1.52c0.08,0.43,0.21,0.8,0.38,1.11    c0.29,0.53,0.7,0.92,1.23,1.18c0.53,0.26,1.16,0.39,1.89,0.39c0.77,0,1.43-0.14,1.98-0.43c0.55-0.29,0.96-0.73,1.24-1.32    c0.28-0.56,0.41-1.35,0.41-2.36V51.85h4.28v10.67c0,1.42-0.25,2.61-0.74,3.59c-0.28,0.55-0.63,1.06-1.07,1.51    c-0.44,0.45-0.96,0.84-1.55,1.15c-0.6,0.32-1.27,0.56-2.02,0.74C319.19,69.68,318.35,69.77,317.43,69.77z"></path>
		<path class="st0" d="M340.52,69.3c-0.48,0.14-1.06,0.26-1.72,0.34c-0.67,0.08-1.29,0.13-1.87,0.13c-1.47,0-2.67-0.24-3.6-0.71    c-0.93-0.47-1.59-1.16-1.98-2.05c-0.28-0.64-0.41-1.5-0.41-2.6v-9.05h-3.27v-3.52h3.27v-4.89h4.28v4.89h5.05v3.52h-5.05v8.49    c0,0.67,0.1,1.17,0.31,1.5c0.36,0.55,1.08,0.83,2.15,0.83c0.49,0,0.98-0.04,1.47-0.12c0.49-0.08,0.95-0.18,1.38-0.3V69.3z"></path>
		<path class="st0" d="M351.58,69.77c-1.76,0-3.21-0.3-4.37-0.89c-1.16-0.6-2.03-1.4-2.62-2.41c-0.31-0.54-0.54-1.14-0.69-1.79    c-0.15-0.65-0.23-1.37-0.23-2.16V51.85h4.28v10.22c0,0.59,0.04,1.1,0.13,1.52c0.08,0.43,0.21,0.8,0.38,1.11    c0.29,0.53,0.7,0.92,1.23,1.18c0.53,0.26,1.16,0.39,1.89,0.39c0.77,0,1.43-0.14,1.98-0.43c0.55-0.29,0.96-0.73,1.24-1.32    c0.28-0.56,0.41-1.35,0.41-2.36V51.85h4.28v10.67c0,1.42-0.25,2.61-0.74,3.59c-0.28,0.55-0.63,1.06-1.07,1.51    c-0.44,0.45-0.96,0.84-1.55,1.15c-0.6,0.32-1.27,0.56-2.02,0.74C353.35,69.68,352.51,69.77,351.58,69.77z"></path>
		<path class="st0" d="M374.39,55.24h-0.36c-1.31,0-2.46,0.2-3.46,0.59c-0.99,0.39-1.76,0.99-2.3,1.79v11.7H364V51.85h3.54l0.4,2.43    h0.07c0.51-0.89,1.2-1.59,2.08-2.1c0.88-0.51,1.95-0.77,3.18-0.77c0.43,0,0.81,0.02,1.12,0.07V55.24z"></path>
		<path class="st0" d="M385.92,66.32c0.83,0,1.7-0.08,2.6-0.25c0.9-0.17,1.82-0.41,2.74-0.72v3.41c-0.55,0.24-1.4,0.47-2.54,0.69    c-1.14,0.22-2.33,0.32-3.55,0.32c-1.24,0-2.42-0.16-3.53-0.48c-1.11-0.32-2.08-0.83-2.91-1.54c-0.83-0.71-1.49-1.63-1.98-2.76    c-0.49-1.13-0.73-2.5-0.73-4.11c0-1.59,0.23-2.98,0.69-4.17c0.46-1.19,1.07-2.18,1.84-2.96c0.77-0.78,1.65-1.37,2.64-1.76    c0.99-0.39,2.02-0.59,3.08-0.59c1.11,0,2.13,0.17,3.06,0.5c0.93,0.34,1.74,0.87,2.42,1.59c0.68,0.72,1.21,1.65,1.59,2.79    c0.38,1.14,0.57,2.48,0.57,4.03c-0.01,0.6-0.03,1.11-0.05,1.53h-11.46c0.06,0.81,0.24,1.49,0.54,2.06    c0.3,0.57,0.69,1.03,1.18,1.39c0.49,0.35,1.06,0.61,1.7,0.78C384.46,66.24,385.17,66.32,385.92,66.32z M384.21,54.75    c-0.54,0-1.02,0.1-1.44,0.3c-0.42,0.2-0.79,0.47-1.09,0.81c-0.31,0.34-0.55,0.74-0.73,1.2c-0.18,0.46-0.3,0.94-0.36,1.46h6.88    c0-0.52-0.07-1-0.21-1.46c-0.14-0.46-0.34-0.86-0.61-1.2c-0.27-0.34-0.61-0.61-1.01-0.81C385.22,54.85,384.75,54.75,384.21,54.75z    "></path>
		<path class="st0" d="M160.96,113.63h-4.42V93.2h-7.8v-3.7h19.99v3.7h-7.78V113.63z"></path>
		<path class="st0" d="M185.95,104.9c0,1.37-0.2,2.62-0.61,3.75c-0.41,1.13-1,2.1-1.76,2.9c-0.76,0.81-1.69,1.43-2.77,1.87    c-1.08,0.44-2.29,0.66-3.63,0.66c-1.37,0-2.6-0.22-3.69-0.66c-1.09-0.44-2.01-1.06-2.77-1.87c-0.76-0.81-1.34-1.77-1.74-2.9    c-0.4-1.13-0.6-2.38-0.6-3.75c0-1.37,0.2-2.62,0.61-3.75c0.41-1.13,1-2.1,1.76-2.9s1.69-1.43,2.77-1.87    c1.08-0.44,2.29-0.66,3.63-0.66c1.37,0,2.6,0.22,3.69,0.66c1.09,0.44,2.01,1.06,2.77,1.87c0.76,0.81,1.34,1.77,1.74,2.9    C185.75,102.28,185.95,103.53,185.95,104.9z M181.53,104.9c0-0.93-0.11-1.74-0.32-2.45s-0.52-1.3-0.9-1.79    c-0.39-0.48-0.85-0.84-1.39-1.08c-0.54-0.24-1.13-0.36-1.77-0.36c-0.63,0-1.21,0.12-1.74,0.36c-0.54,0.24-1,0.6-1.38,1.08    c-0.39,0.48-0.69,1.08-0.9,1.79c-0.22,0.71-0.32,1.53-0.32,2.45c0,0.93,0.11,1.74,0.32,2.45c0.22,0.71,0.52,1.3,0.91,1.78    c0.39,0.47,0.85,0.84,1.39,1.08c0.54,0.25,1.12,0.37,1.76,0.37c0.64,0,1.22-0.12,1.75-0.37c0.53-0.25,0.99-0.61,1.37-1.08    c0.38-0.47,0.69-1.07,0.9-1.78C181.42,106.65,181.53,105.83,181.53,104.9z"></path>
		<path class="st0" d="M201.09,114.08c0-0.24,0-0.54,0.01-0.89c0.01-0.35,0.02-0.65,0.05-0.89h-0.04c-0.26,0.22-0.57,0.43-0.91,0.64    c-0.34,0.21-0.72,0.4-1.13,0.58c-0.41,0.17-0.86,0.31-1.35,0.41c-0.49,0.1-1,0.15-1.52,0.15c-0.93,0-1.83-0.17-2.72-0.5    c-0.88-0.33-1.67-0.85-2.35-1.57c-0.69-0.72-1.24-1.63-1.66-2.75c-0.42-1.12-0.63-2.46-0.63-4.04c0-1.57,0.21-2.95,0.64-4.14    c0.43-1.18,1-2.17,1.71-2.97c0.71-0.79,1.52-1.39,2.45-1.79c0.92-0.4,1.87-0.6,2.84-0.6c1.07,0,2.02,0.23,2.85,0.68    c0.83,0.45,1.51,1.02,2.04,1.72h0.07l0.18-1.97h3.75v17.8c0,1.02-0.08,1.9-0.25,2.63c-0.17,0.73-0.42,1.38-0.74,1.95    c-0.39,0.66-0.88,1.24-1.47,1.73c-0.6,0.49-1.28,0.9-2.04,1.23c-0.76,0.32-1.6,0.57-2.52,0.73c-0.91,0.16-1.88,0.24-2.91,0.24    c-0.58,0-1.14-0.02-1.7-0.06c-0.55-0.04-1.07-0.1-1.56-0.18c-0.49-0.08-0.93-0.17-1.34-0.27c-0.4-0.1-0.74-0.21-1.02-0.32v-3.48    c0.79,0.26,1.63,0.47,2.5,0.6c0.87,0.14,1.79,0.21,2.75,0.21c1.91,0,3.39-0.37,4.44-1.11c1.05-0.74,1.57-1.86,1.57-3.36V114.08z     M197.26,110.67c0.43,0,0.84-0.05,1.23-0.16c0.39-0.11,0.74-0.25,1.06-0.41c0.32-0.17,0.62-0.35,0.88-0.56    c0.26-0.2,0.48-0.41,0.66-0.61v-7.81c-0.46-0.54-1.02-0.99-1.7-1.35c-0.67-0.36-1.39-0.55-2.15-0.56c-0.26,0-0.54,0.03-0.84,0.1    c-0.29,0.07-0.59,0.18-0.89,0.35c-0.3,0.17-0.59,0.39-0.86,0.68c-0.27,0.28-0.51,0.64-0.71,1.07c-0.2,0.43-0.37,0.95-0.5,1.55    c-0.13,0.6-0.19,1.3-0.19,2.09c0,0.88,0.08,1.66,0.25,2.35c0.17,0.69,0.42,1.28,0.76,1.77c0.34,0.49,0.75,0.86,1.25,1.12    C196.02,110.55,196.6,110.67,197.26,110.67z"></path>
		<path class="st0" d="M219.06,110.64c0.83,0,1.7-0.08,2.6-0.25c0.9-0.17,1.82-0.41,2.74-0.72v3.41c-0.55,0.24-1.4,0.47-2.54,0.69    c-1.14,0.22-2.33,0.32-3.55,0.32c-1.24,0-2.42-0.16-3.53-0.48c-1.11-0.32-2.08-0.83-2.91-1.54c-0.83-0.71-1.49-1.63-1.98-2.76    c-0.49-1.13-0.73-2.5-0.73-4.11c0-1.59,0.23-2.98,0.69-4.17c0.46-1.19,1.07-2.18,1.84-2.96c0.77-0.78,1.65-1.37,2.64-1.76    c0.99-0.39,2.02-0.59,3.08-0.59c1.11,0,2.13,0.17,3.06,0.5c0.93,0.34,1.74,0.87,2.42,1.59c0.68,0.72,1.21,1.65,1.59,2.79    c0.38,1.14,0.57,2.48,0.57,4.03c-0.01,0.6-0.03,1.11-0.05,1.53h-11.46c0.06,0.81,0.24,1.49,0.54,2.06    c0.3,0.57,0.69,1.03,1.18,1.39c0.49,0.35,1.06,0.61,1.71,0.78C217.6,110.56,218.3,110.64,219.06,110.64z M217.35,99.06    c-0.54,0-1.02,0.1-1.44,0.3c-0.42,0.2-0.78,0.47-1.09,0.81c-0.31,0.34-0.55,0.74-0.73,1.2c-0.18,0.46-0.3,0.94-0.36,1.46h6.87    c0-0.52-0.07-1-0.21-1.46c-0.14-0.46-0.34-0.86-0.61-1.2c-0.27-0.34-0.61-0.61-1.01-0.81C218.36,99.16,217.89,99.06,217.35,99.06z    "></path>
		<path class="st0" d="M239.69,113.61c-0.48,0.14-1.06,0.26-1.72,0.34c-0.67,0.08-1.29,0.13-1.87,0.13c-1.47,0-2.67-0.24-3.6-0.71    c-0.93-0.47-1.59-1.16-1.98-2.05c-0.28-0.64-0.41-1.5-0.41-2.6v-9.05h-3.27v-3.52h3.27v-4.89h4.28v4.89h5.05v3.52h-5.05v8.49    c0,0.67,0.1,1.17,0.31,1.5c0.36,0.55,1.08,0.83,2.15,0.83c0.49,0,0.98-0.04,1.47-0.12c0.49-0.08,0.95-0.18,1.38-0.3V113.61z"></path>
		<path class="st0" d="M247.48,94.64c0,0.9-0.02,1.64-0.05,2.23c-0.03,0.58-0.08,1.11-0.15,1.58h0.07c0.25-0.34,0.56-0.67,0.93-1.01    c0.37-0.34,0.77-0.63,1.21-0.87c0.44-0.25,0.94-0.45,1.5-0.6c0.56-0.16,1.18-0.23,1.85-0.23c0.58,0,1.14,0.06,1.69,0.17    c0.55,0.11,1.06,0.29,1.53,0.53c0.48,0.24,0.91,0.55,1.3,0.94c0.39,0.38,0.72,0.84,0.98,1.37c0.23,0.46,0.4,0.97,0.51,1.55    c0.11,0.58,0.16,1.28,0.16,2.11v11.23h-4.28v-10.66c0-0.54-0.02-0.98-0.07-1.33c-0.05-0.34-0.13-0.64-0.25-0.89    c-0.25-0.53-0.61-0.9-1.08-1.12c-0.47-0.22-1-0.32-1.61-0.32c-0.83,0.01-1.6,0.21-2.3,0.6c-0.7,0.38-1.35,0.95-1.94,1.69v12.03    h-4.28V87.52h4.28V94.64z"></path>
		<path class="st0" d="M272.71,110.64c0.83,0,1.7-0.08,2.6-0.25c0.9-0.17,1.82-0.41,2.74-0.72v3.41c-0.55,0.24-1.4,0.47-2.54,0.69    s-2.33,0.32-3.55,0.32c-1.24,0-2.42-0.16-3.53-0.48c-1.11-0.32-2.08-0.83-2.91-1.54c-0.83-0.71-1.49-1.63-1.98-2.76    c-0.49-1.13-0.73-2.5-0.73-4.11c0-1.59,0.23-2.98,0.69-4.17c0.46-1.19,1.07-2.18,1.84-2.96c0.77-0.78,1.65-1.37,2.64-1.76    c0.99-0.39,2.02-0.59,3.08-0.59c1.11,0,2.13,0.17,3.06,0.5c0.93,0.34,1.74,0.87,2.42,1.59c0.68,0.72,1.21,1.65,1.59,2.79    s0.57,2.48,0.57,4.03c-0.01,0.6-0.03,1.11-0.05,1.53h-11.46c0.06,0.81,0.24,1.49,0.54,2.06c0.3,0.57,0.69,1.03,1.18,1.39    c0.49,0.35,1.06,0.61,1.71,0.78C271.25,110.56,271.95,110.64,272.71,110.64z M271,99.06c-0.54,0-1.02,0.1-1.44,0.3    c-0.42,0.2-0.78,0.47-1.09,0.81c-0.31,0.34-0.55,0.74-0.73,1.2c-0.18,0.46-0.3,0.94-0.36,1.46h6.87c0-0.52-0.07-1-0.21-1.46    c-0.14-0.46-0.34-0.86-0.61-1.2c-0.27-0.34-0.61-0.61-1.01-0.81C272.01,99.16,271.54,99.06,271,99.06z"></path>
		<path class="st0" d="M293.05,99.55h-0.36c-1.31,0-2.46,0.2-3.46,0.59c-0.99,0.39-1.76,0.99-2.3,1.79v11.7h-4.28V96.16h3.54    l0.4,2.43h0.07c0.51-0.89,1.2-1.59,2.08-2.1c0.88-0.51,1.95-0.77,3.18-0.77c0.43,0,0.81,0.02,1.12,0.07V99.55z"></path>
	</g>
</g>
</svg>
